# xmcd
#
# Track frame offsets:
#	183
#	11208
#	23618
#	34000
#	48113
#	61758
#	78748
#	94038
#	111305
#	125798
#	135300
#	151285
#	163990
#	176130
#	189298
#
# Disc length: 2696 seconds
#
# Revision: 3
# Processed by: cddbd v1.5.1PL2 Copyright (c) Steve Scherf et al.
# Submitted via: audiograbber 1.83.01
#
DISCID=c00a860f
DTITLE=Various Artist - Country Ballads [CD1]
DYEAR=1995
DGENRE=Country
TTITLE0=Crystal Gayle - Somebody Loves You
TTITLE1=Willie Nelson - Country Willy
TTITLE2=Slim Whitman - Take Me In Your Arms And Hold Me
TTITLE3=Juice Newton - All I Have To Do Is Dream
TTITLE4=Dr. Hook - Better Love Next Time
TTITLE5=Kenny Rogers - Love Lifted Me
TTITLE6=Nitty Gritty Dirt Band - Jambalaya (On The Bayou)
TTITLE7=Olivia Newton John - Country Girl
TTITLE8=Don Williams - Another Place Another Time
TTITLE9=Bobby Gentry - Son Of A Preacher Man
TTITLE10=Joe South - Games People Play
TTITLE11=Billie Jo Spears - (I Never Promised You a) Rose Garden
TTITLE12=Glen Campbell - By The Time I Get To Phoenix
TTITLE13=Slim Whitman - Among My Souvenirs
TTITLE14=Crystal Gayle - Wayward Wind
EXTD=YEAR: 1995 ID3G: 2
EXTT0=
EXTT1=
EXTT2=
EXTT3=
EXTT4=
EXTT5=
EXTT6=
EXTT7=
EXTT8=
EXTT9=
EXTT10=
EXTT11=
EXTT12=
EXTT13=
EXTT14=
PLAYORDER=
